<?xml version="1.0" encoding="UTF-8"?>
<svg id="Ebene_1" data-name="Ebene 1" xmlns="http://www.w3.org/2000/svg" viewBox="0 0 1500 1500">
  <defs>
    <style>
      .cls-1 {
        fill: #0a0a0a;
      }
    </style>
  </defs>
  <path class="cls-1" d="M803.73,854.14c-53.02-54.96-37.87-181.18-16.86-248.13,42.86-136.57,189.93-301.99,346.9-277.56,189.09,29.43,112.91,284.11,44.03,393.14-65.09,103.04-209.65,209.88-336.49,157.28-11-4.56-29.46-16.31-37.59-24.73ZM1176.58,359.57c-40.27-17.49-85.9-12.6-128.11-4.98-44.47,8.03-61.88,17.73-96.42,45.61-117.38,94.76-197.05,249.73-163.81,402.8,51.24-59.1,121.23-114.51,161.71-181.71,28.08-46.61,24.06-76.76,36.7-125.62,15.48-59.87,34.5-71.52,86.55-98.95,22.08-11.64,44.65-22.57,68.59-29.96l34.78-7.19ZM1173.7,376.95c-64.21,7.93-144.27,52-166.59,115.98-7.53,21.58-5.25,39.88-8.62,60.94-4.91,30.65-88.79,156.82-112.75,181.44-21.2,21.78-50.65,33.62-59.84,67.66l81.29-56.35c23.5-33.63,63.74-59.74,86.8-92.9,33.12-47.63,50.91-122.2,82.84-175.12,25.26-41.87,58.59-72.16,96.86-101.65ZM1202.55,379.94c-4.08-1.27-6.86.9-10.23,2.56-26.61,13.04-76,64.24-93.44,89.16-30.77,43.98-38.72,96.13-65.7,142.99-57.62,100.1-136.26,139.76-215.19,213.68-1.82,1.71-7.27.68-2.32,6.62,7.98,9.58,66.42,16.39,81.26,17.29,92.8,5.62,143.15-40.63,200-107.17,46.14-54,100.32-123.54,113.59-193.64,10.29-54.39,11.86-119.69-7.98-171.48Z"/>
  <g>
    <path class="cls-1" d="M532.56,760.38c164.08-14.67,262.9,199.84,234.55,338.9-24.45,119.95-93.29,213.71-228.89,187.02-167.81-33.03-248.13-250.59-185.31-398.32,27.22-64.01,111.07-121.46,179.65-127.59ZM683.88,1240.67c.85.82,6.44.07,8.74-1.4,5.26-3.37,26.2-34.59,30.43-42.04,43.81-77.25,48.46-191.08,14.4-272.46-43.85-104.78-166.81-199.08-273.86-116.01,88.56,3.85,132.08,75.28,144.55,155.47,11.95,76.87,8.26,119.82,38.77,196,10.14,25.31,25.06,44.67,34.73,66.74,2,4.57,1.74,13.23,2.24,13.71ZM660.66,1252.23c1.31-5.03-2.09-5.79-4.31-8.7-8.94-11.66-23.44-23.81-33.27-36.29-60.16-76.37-96.58-166.17-104.39-263.71-3.05-38.06,9.91-60.88-21.79-91.25-5.96-5.71-43.25-32.98-48.65-31.6-12.16,3.11-51,59.63-57.65,73.06-50.54,102,4.22,294.82,111.61,341.62,48.52,21.14,106.55,21.81,158.47,16.86ZM651.96,1217.45c-17.33-38.47-32.39-74.46-42.04-115.89-20.69-88.84-6.17-179-72.39-249.33-11.4-12.11-27.17-26.38-44.95-26.02l19.76,22.22c25.79,42.56,24.78,93.36,33.24,140.67,12.56,70.26,48.48,139,83.75,200.3l22.63,28.05Z"/>
    <path class="cls-1" d="M457.2,85.05c50.06-3.97,123.89,21.41,164.34,51.31,31.03,22.94,100.46,157.07,110.76,196.47,28.31,108.27-5.04,256.65-126.07,289.63-83.55,22.76-224.39-25.4-275.48-96.76-96.76-135.14-80.43-424.23,126.46-440.66ZM596.9,605.88c51.7,1.87,100.77-59.66,117.34-104.38,41.79-112.78-13.66-231.81-75.58-324.31-37.02-55.3-117.95-82.07-182.3-75.6-11.08,1.11-45.5,8.47-44.45,20.89,5.67,66.43,106.37,96.3,147.01,137.34,56.05,56.61,63.7,188.24,55.33,263.42-3.13,28.16-11.72,55.07-17.36,82.63ZM579.51,605.88c-9.57-99.01-26.23-201.88-92.82-279.6-27.96-32.63-85.55-68-97.01-108.77-8.85-31.5,1.07-58.57,2.91-89.83-95.52,75.18-103.33,247.68-46.44,347.85,20.51,36.11,98.23,101.41,138.37,113.79,28.67,8.84,65.31,8.56,95,16.56ZM591.08,585.59c15.33-98.32,29.38-230.41-47.71-307.3-35.62-35.53-99.27-65.84-125.65-106.23-9.15-14.01-10.8-29.21-20.78-41.51.42,30.68-.57,66.99,13.94,94.72,12.51,23.91,42.01,39.48,61.43,57.4,54.22,50.04,75.39,114.29,94.17,184.08l24.59,118.83Z"/>
  </g>
</svg>