<?xml version="1.0" encoding="UTF-8"?>
<svg id="Ebene_1" data-name="Ebene 1" xmlns="http://www.w3.org/2000/svg" viewBox="0 0 1500 1500">
  <defs>
    <style>
      .cls-1 {
        fill: #0a0a0a;
      }
    </style>
  </defs>
  <g>
    <g>
      <path class="cls-1" d="M173.42,489.58c3.81,3.21-13.5,18.13-15.98,22.05-44.85,70.62-34.68,164.4,46.83,200.32,58.37,25.72,116.76,23.73,177.46,6.12,19.89,50.54,48.8,100.36,91.24,135.53,35.02,29.02,63.08,38.51,106.62,48.91,13.19,3.15,31.31-1.75,40.52,14.05-110.29-4.08-202.42-78.49-241.81-178.43-3.8-3.34-82.09,13.22-100.58,9.6-7.03-1.38-9.62-8.09-13.11-8.59-4.25-.61-11.76,2.92-19.61,1.76-90-13.29-129.72-78.84-121.17-166.9,2.37-24.38,15.98-69.81,39.66-79.49l-6.59-4.92,16.51-.02Z"/>
      <path class="cls-1" d="M335.58,473c-.89,69.63,11.56,138.43,29.65,205.08-56.66,25.85-117.22,24.39-165.36-17.99-43.36-38.17-41.08-103.67-.09-142.51,35-33.16,89.01-44.55,135.8-44.58ZM322.31,482.94c-70.33,5.93-159.48,53.42-138.12,136.55,17.75,69.09,115.12,75.71,167.92,45.45-22.27-56.66-29.89-121.15-29.8-182Z"/>
    </g>
    <g>
      <path class="cls-1" d="M1126.34,747.77c-1.3,19.9-14.83,30.33-16.88,49.36-18.2-3.01-11.66,8.83-17.91,23.44-18.74,43.8-38.68,51.47-66.16,82.76-25,28.47-27.12,71.3-44.42,104.32,21.14,34.14,38.9,71.3,59.86,105.4,27.9,45.39,79.33,106.41,96.16,155.37,5.93,17.23,1.78,22.49-10.05,6.75-14.97-19.9-30.07-55.18-44.25-78.21-38.1-61.89-81.89-121.29-112.15-187.56-28.09,5.89-60.96-8.6-87.39-10.1-5.2-.29-5.65-.6-4.92,4.97l224.68,294.92c5.85,6.56,12.64,5.15,20.33,3.33,10.06-2.38,18.91-18.24,22.93-15.14,3.34,2.57.33,15.47.9,16.03,1.16,1.15,5.75.21,5.75.49v59.59h-150.55c-12.21-8.24-46.79,5.17-44.72-17.95,3.04-33.96,89.32-22.5,113.34-25.95,9.09-1.3,27.96-4.93,25.85-17.21-.24-1.4-16.12-12.23-21.39-18.62-17.47-21.17-33.31-46.76-50.26-68.89-56.5-73.8-117.18-144.46-168.29-222.26-6.91-15.73,7.59-30,4.81-46.21-5.04,1.85-8.94,11.64-11.6,16.49-2.97,5.41-11.35,20.06-11.31,24.9.05,5.08,4.71,9.31,5.57,14.08,3.86,21.48,11.35,49.2,13.44,69.6.8,7.81-3.49,14.24-2.91,18.57.3,2.24,6.95,1.79,6.98,3.86.64,48.15,27.7,120.55,32.53,175.67,2.05,23.39-1.6,46.94-.04,70.29-3.75,6.08-122.69,6.46-140.29,6.94-14.49.4-64.47,10.77-72.68-3.13-4.2-7.11-3.14-21.29,5.8-24.06l145.01-34.3c-15.09-81.97-39.49-161.86-58.18-242.9-6.04-26.18-7.76-63.77-15.63-86.97-3.21-9.46-19.59-13-21.75-24.79-1.98-10.84,16.78-30.91,15.89-43.84-34.28,16.6-70.44,29.4-109.16,29.76-3.38-2.6,8.2-12.95,8.98-13.11,11.34-2.34,24.6-.66,38.06-4.35,48.74-13.38,112.32-68.81,142.93-108.58,36.93-47.99,69.62-107.54,87.95-165.21-27.99-1.53-56.38,6.86-84.43,3.28-4.57-.58-9.81-1.95-4.91-6.59l221.7-31.56c-5.93-5.97-21.46-45.98-23.7-47.38-4.2-2.63-16.72.61-22.62-.56,4.3-15.87-.83-32.46-8.65-46.57-3.58-.59-26.83,7.2-29.37,10.23-2.93,3.5-12.6,43.98-11.07,45.84,1.43,1.74,7.44-1.81,6.03,3.72-29.3,11.82-61.21,15.24-92.6,16.58-1.28-7.57.65-6.47,6.49-8.21,11-3.28,61.76-7.61,65.72-12.21l33.63-121.89c-48.2,11.7-96.06,3.51-144.44.23-93.02-6.3-187.6-11.47-280.68-20.13-71.08-6.62-148.73-16.28-216.71-36.39-2.31,3.21,6.81,53.59.13,61.46-38.37-2.23-76.31,2.87-113.72,11.97-6.65,6.98-40.15,37.97-46.88,39.18-5.24.94-5.6-.09-5.03-5.02,1.86-16.04,49.53-45.64,64.53-51.33,25.49-9.67,61.71-13.59,87.7-6.6v-71.17c0-12.96,46.23-17.56,56.23-14.91.23-7.4-3.7-13.78-3.41-21.31.69-17.91,12.6-83.74,17.65-101.82,14.55-52.13,74.16-42.68,59.62,16.62-7.51,30.6-36.36,49.27-22.49,86.62,8.82,23.75,28.36,23.99,51.22,23.21,3.39-3.2-14.47-34.55-1.07-43.25,28.2-18.32,37.35,45.47,42.95,46.75l151.56,9.9c38.46.99,50.74,3.9,79.53-23.33,36.7-34.71,73.67-90.56,120.65-114.33,28.91-14.63,66.79-24.15,92.95-.09,38.09,35.05-16.1,101.11-30.51,138.68-15.41,40.16,6.47,23.31,31.45,39.2,2.84,1.8,21.93,20.05,22.16,21.58.44,2.93-8.5,52.19-10.13,58.34-.74,2.8-6.24,2.22-6.14,3.76.86,13.2,9.67,15.04,20.65,8.57,3.85-2.27,1.13-8.23,2.48-9.51,1.53-1.45,11.27-.29,16.29-2.08,30.14-10.73,57.35-36.14,92.43-38.18l3.45,13.2c-19.76,3.91-37.18,3.83-56.23,11.65-4.41,1.81-38.01,18.43-39.74,19.82-9.66,7.81,6.07,27.13,3.35,38.06l23.09-26.46c1.34,16.3-14.91,25.16-18.2,39.65l54.63-19.76c-8.78,11.28-26.33,16.22-39.69,19.87-2.45,3.5,32.22,65.45,36.36,68.06,6.45,4.08,33.27-11.4,43.02-8.5-.39,2.71.76,8.9,0,9.83-1.38,1.7-35.94,8.93-41.67,13.4l-16.61-12.37c-24.06,7.84-81.58,4.97-101.39,15.57-2.45,1.31-15.15,24.76-20.76,29.77-4.24,3.79-10.56,2.89-11.32,3.57-.35.32,2.92,4.98,1.43,9.4-7.01,20.66-26.66,37.29-7.97,54.76,37.23,34.8,134.57,59.58,184.78,67.84,3.65-5.02,12.62-34.47,13.99-35.82,1.71-1.69,6.89.16,9.48-.38,1.34-20.44,9.21-38.56,20.25-60.84,16.59-33.48,40.54-64.37,51.6-100.65,9.13-29.95,8.3-44.83,4.47-75.49-.82-6.6,4.45-6.68,6.35-4.68,3.65,3.84,3.93,43.34,3.48,51.45-3.12,56.8-50.19,123.93-75.85,175.76-5.23,10.57.77,12.14-10.31,14.45ZM351.34,348.13c-38.8,5.96-7.4,22.34,13.26,24.8,13.5,1.61,18.43,1.07,17.58-14.14-.91-16.35-17.6-12.69-30.83-10.66ZM686.26,367.12l-155.47-13.27c-1.27,6.47,3,7.93,7.59,10.58,22.31,12.85,103.16,15.76,129.5,12.38,3.97-.51,17.34-4.67,18.38-9.69ZM980.05,410.72c-2.78-4.86-49.88-19.52-52.21-17.14-5.62,13.08,35.64,31.16,40.98,29.92,2.29-.53,1.73-6.93,3.93-6.89,2.8.05,15.6,8.66,7.3-5.88ZM837.97,965.69c8-22.24,29.42-42.11,36.77-64.14,10.14-30.39,14.77-74.1,22.23-106.86,3.65-16.02,17.09-49.18,17.62-62.21.4-9.92-9.19-12.23-9.98-21.12-29.43,42.33-54.52,87.19-90.65,124.31-9.37,9.62-31.95,24.08-38.43,32.83-3.63,4.91-25.74,55.94-25.93,60.4-.41,9.8,22.56,17.04,28.3,20.2,21.01,11.56,32.98,21.06,60.08,16.6ZM973.7,998.89c15.26-33.09,21.33-80.32,46.62-107.27,21.91-23.34,37.21-29.05,54.8-61.03,26.72-48.57,15.13-33.61-24.91-44.72-43.68-12.12-88.07-35.23-128.97-54.65l-56.21,254.81c35.72,6.79,72.1,12.19,108.67,12.86ZM842.34,1276.83c4.09,6.36,37.07,2.11,38.79-4.61l-52-281.72c-8.02-24.12-13.13-11.55-24.52-14.89-5.57-1.63-29.48-15.62-32.29-12.66l70.01,313.87Z"/>
      <path class="cls-1" d="M850.59,177.26c-8.97,8.75-27.35,19.82-38.24,29.62-8.52,7.67-10.25,21.41-26.8,17.85,7.03-25.87,28.56-57.79,49.9-74.18,41.61-31.94,44.84-2.27,15.13,26.71Z"/>
      <path class="cls-1" d="M348.78,290.93c-7.51,1.8-5.4-1.18-7.59-4.13-11.93-16.06-19.72-81.08,3.03-85.03,24.14-4.2-1.86,76.27,4.56,89.16Z"/>
    </g>
  </g>
  <g>
    <path class="cls-1" d="M1196.32,326.83c3.38,2.8,19.98-4.03,25.13,16.23,3.58,14.09-1.61,23.24-2.46,35.6-.3,4.45,3.03,9.3,2.86,13.39-.56,14.26-19.19,29.68-31.86,33.83-4.04,1.32-13.33.15-14.01.79-1,.94-.49,23.52.67,27.45,2.52,8.55,18.96,12.99,15.83,25.5-16.88-19.99-20.87-6.24-41.69-3.68-14.53,1.79-46.8,5.73-44.28-16.17,10.88-3.38,3.81,8.99,8.39,10.13,7.13,1.77,52.94-5.17,56.3-9.96,2.27-3.23,2.41-31.44,1.1-32.94-3.11-3.55-22.19,1.41-23.02-22.1-.54-15.39,17.76-8.01,16.79-21.27-25.38,2.52-15.95-15.04-21.48-26.6-2.03-4.24-8.59-4.87-10.69-7.43-3.02-3.67-2.6-8.18-3.99-10.3-7.02-10.74-11.41,13.44-14.47,16.84-5.57,6.19-30.41,8.54-21.48,23.52,1.61,2.7,11.62,2.17,11.93,11.7.22,6.87-12.08,14.71-15.91,12.12-1.66-1.12-7.13-37.22-5.27-39.82,2.7-3.76,19.89-6.91,23.41-13.17,3.01-5.35.51-12.5,2.53-17.33,14-33.57,58.6-48.76,82-17.41,2.56,3.43,2.63,10.21,3.67,11.07Z"/>
    <path class="cls-1" d="M524.16,615.36l16.57,6.64c1.79,13.83-24.46,5.17-28-.16-1.86-2.81-5.73-18.21-4.9-21.03,1.5-5.11,10.73-4.49,9.7-6.95-1.43-3.41-9.49-7.14-6.59-14.87,29.7-9.34,59.59,1.76,89.31,3.25-19.05-53.46,15.96-2.39,28.21-.06,23.08,4.4,49.91-2.28,72.75-3.2,34.07-1.37,68.14-2.83,102.24-3.39l1.97,9.97c-56.19-.96-117.77,12.91-173.79,6.64-16.51-1.85-16.7-10.68-28.04-19.84l3.29,19.82-49.66-3.28c9.38,22.09-19.99,10.08-33.05,9.93-1.35,9.19,1.56,6.21,8.19,6.61,13.16.8,31.56-5.23,38.11,9.92h-46.32Z"/>
    <path class="cls-1" d="M643.25,635.2c-25.89-.35-55.2-.06-80.76-3.58-6-.83-16.23-2.88-18.49-9.61l90.97,3.29,8.27,9.9Z"/>
    <path class="cls-1" d="M805.4,625.29l.02,6.6c-5.18-2.16-12.38,3.33-14.91,3.33h-64.52c.02-2.96,2.98-5.23,5.65-5.93,2.13-.56,24.48-4,25.78-4h47.98Z"/>
    <path class="cls-1" d="M815.31,628.63c2.24,1.15-1.94,5.62-6.58,3.24-2.24-1.15,1.94-5.62,6.58-3.24Z"/>
  </g>
</svg>