<?xml version="1.0" encoding="UTF-8"?>
<svg id="Ebene_1" data-name="Ebene 1" xmlns="http://www.w3.org/2000/svg" viewBox="0 0 1500 1500">
  <defs>
    <style>
      .cls-1 {
        fill: #0a0a0a;
      }
    </style>
  </defs>
  <path class="cls-1" d="M546.81,1207.83c-29.25-21.92-53.21-47.51-77.44-74.72-37.17,1.75-73.19,4.02-110.42-.91-44.63-5.92-116.9-19.95-137.93-63.82-49.34-102.9,60.18-159.6,148.11-152.66-3.55-30.55-23.24-53.45,6.3-76.5,18.42-14.38,27.89-11.15,45.5-16.96,2-.66,2.35-4.89,4.8-5.61,19.14-5.6,91.9-14.85,99.81-20.04,6.5-4.27,26.46-40.91,37.38-51.45,11.75-11.34,26.73-22.7,44.13-19.11,2.83,11.93-6.98,8.51-15.77,15.16-45.52,34.43-69.3,97.17-92.65,147.4l90.34,4.75c21.06-43.98,47.68-85.16,82.9-119.25,3.24-5.89-.61-12-4.55-16.49,6.03-2.89,9.18,9.38,13.42,7.52,8.07-3.54,22.25-23.8,37.73-21.06l-21.12-165.59c-11.95,3.71-66.16,6.31-72.49-1.99-8.6-11.27-7.09-48.28-8.81-62.74-4.15-34.86-8.53-69.72-12.06-104.65-2.59-5.59-13.31-2.4-15.14-12.87-3.2-18.35,11.98-10.54,18.36-14.9,3.06-2.09,1.56-8.28,4.8-10.89,8.6-6.93,74.17-11.87,84.7-6.62,7.62,3.81,5.45,10.63,7.31,12.25,3.13,2.72,18.94-.19,22.87,11.79,4.53,13.81-4.89,12.81-5.38,14.99-2.97,13.11,1.13,31.85.13,41.29-.21,2-5.92,1.65-6.34,3.7-1.56,7.62,14.09,35.21,17.32,45.7,3.54,11.5,4.68,24.2,8.52,36.77,17.22,56.33,37.17,119.26,57.24,174.5,13.57,37.35,44.43,36.55,76.77,50.3,2.66,28.15-14.67,52.13-18.17,79.3,4.43,4.2,70.63-27.18,84.29-21.05l-8.28,11.26-112.25,38.38c-6.16,5.44,9.05,27.24,6.25,37.52,20.53.35,41.15.1,61.72.01,10.02-.05,18.12,5.27,29.31-.57,12.16-6.34,36.6-50.19,48.81-62.59,14.96-15.18,37.73-16.81,58.03-20.26,26.99-4.59,55-5.5,82.05-9.83l-7.49-24.02c-14.6,6.97-74.63,30.37-86.99,26.82-11.31-3.25-.79-28.7-1.86-29.84-4.09-4.36-100.83-13.69-118.09-18.96-3.94-1.2-21.45-6.97-14.43-14.17,4.05-4.16,61.7,10.99,72.28,9.04.55-30.53,20.53-55.61,50.41-62.54,39.99-9.27,43.07-7.07,74.23-37.18,16.45-15.89,32.27-46.67,60.91-47.83,15.42-.62,18.86,20.6,22.89,23.41,2.27,1.59,11.51,1.71,17.57,5.02,17.45,9.52,30.1,21.73,32.69,42.57,1.76,14.1-4.4,26.17-2.13,38.14,6.6,34.91,68.01,41.13,93.44,54.25,46.17,23.81,56.23,96.93-.6,115.24-5.82,1.87-15.2.3-17.72,1.86-1.19.74-2.15,8.11-5.1,11.41-25.41,28.44-96.88.69-129.66,2.94-15.97,1.09-9.53,10.45-10.06,16.43-.09,1.01-5.03,9.93-7.6,17.01-21.34,58.72-58.74,119.1-95.51,169.52-31.44,43.11-69.32,84.05-119.87,104.48-.27,4.42,10.84,5.32,13.89,5.63,32.42,3.26,115.58-3.7,106.4,46.88-2.74,15.13-11.02,13.38-19.88,17.88-21.08,10.69-36.59,16.26-59.8,4.88-2.4-1.18.76,5.54-5.76,6.29-18.21,2.09-40.18-2.32-57.96-2.14-106.18,1.02-212.59-1.99-318.81-7.03-30.92-1.47-69.03-1.86-98.88-6.52-14.67-2.29-46.78-8.04-51.72-23.57-6.12-19.27,6.82-31.26,23.58-36.96,7.38-2.51,38.91-8.37,45.84-8.37h55.71ZM626.61,379.73h57.21c10.55,0,16.3-12.82,6.03-12.09-17.19,1.22-35.96,5.94-53.44,6.84l-9.81,5.25ZM617.57,394.79c32.33-1.8,65.48,1.33,97.87,0l.02-9.02c-39.77-3.75-77.97,7.48-117.44,6.03-2.06,13.17,15.43,3.22,19.56,3ZM622.09,455.01h81.3l6.03-51.18c-29.85-4.85-60.09,5.31-90.36,2.98.57,16.1-2.06,32.66,3.03,48.2ZM676.29,503.19l21.06,6.01.03-12.01c-5.87.75-13.85-1.43-19.12-.05-3.14.82-1.7,5.88-1.97,6.05-1.79,1.18-6.82-4.24-8.97-1.54,5.2,14.26,17.39,22.02,25.28,34.91,3.32,5.43,17.69,36.46,16.22,38.43-2.96,3.97-8.42-.65-2.11,16.16,8.63,22.99,11.57,52.29,14.7,79.22,2.05,17.66-.36,55.25,7.65,70.64,1.91,3.67,26.65,18.02,34.33,26.59,8.03,8.96,27.91,45.79,30.25,47.35,4.05,2.69,52.66,9.71,56.88,7.02l18.32-58.09c-27.58-14.07-63.86-19.81-79.32-50.2-20.59-40.45-42.56-120.04-56.81-166.02-6.95-22.42-12.12-45.66-17.31-68.53l-7.97,35.63c-5.06,21.1-24.11-1.78-31.14-11.56ZM685.3,572.46c-.21-10.11,1.22-20.2-1.39-30.21-1.73-6.62-28.46-41.82-32.92-41.93-1.85-.05-22.05,2.07-22.89,2.86-2.51,2.37,4.21,59.41,3.31,68.99l53.89.29ZM1155.07,744.08c.37-11.4-10.29-17.58-11.86-28.81-1.12-7.98,3.11-22.23,1.51-25.37-2.68-5.27-13.98-6.95-16.16-14.13-3.17-10.39,2.32-23.66-2.06-34.05-11.7,10.07-26.41,11.09-40.47,19.76-18.83,11.6-54.95,46.63-57.41,69.31-1.21,11.19,8.06,19.73,5.51,32.17-2.42,11.77-22.18,20.97-20.55,35.32,22.33-7.56,56.49-11.17,76.92-20.92,21.35-10.19,33.86-41.66,64.58-33.28ZM750.53,763.21c-6.14-5.58-18.96-10.89-27.3-10.04-24.95,2.56-75.98,63.77-90.35,84.54-12.73,18.41-21.8,37.14-31.88,56.92l213.81,6.06c6.13-6.22-19.62-63.2-24.53-73.36-8.52-17.62-25.8-51.43-39.76-64.12ZM516.68,813.37c-6.73-5.12-89.11,14.95-102.3,19.62-6.83,2.42-56.17,23.96-48.23,34.53,12.02,1.25,28.74,10.19,40.38,9.03,9.35-.93,40.01-15.63,52.97-19.52,8.23-2.47,39.85-6.93,41.65-8.04,3.7-2.28,7.77-22.93,9.66-27.4,1.57-3.71,8.31-.1,5.87-8.22ZM981.04,874.22c10.19-5.91,66.77,4.07,82.21,5.37,18.08,1.52,39.36.92,57.16,3.06,41.39,4.98,84.73,19.5,126.6,18.2,47.08-1.47,42.92-45.87,5.02-62.49-82.48-36.16-180.49-9.71-265.7.55-20.67,11.37-35.65,35.91-51.03,54.31-.8,6.13.25,3.9,4.41,4.46,5.37.72,22.23,1,26.69-.48,6.36-2.11,11.1-20.93,14.64-22.98ZM844.84,834.58c-1.23-1.94-38.71-7.84-45.07-9.17l6.02,27.1c5.22-1.59,37.75-7.63,39.15-9.07.31-.32.32-8.2-.1-8.87ZM1037.66,991c32.86-3.2,61.28-29.59,76.82-57.15,24.37-43.22,13.05-32.63-21.1-36.22-24.84-2.61-27.28-5.14-52.01-.74-89.16,15.88-160.71,22.41-252.1,21.09-100.66-1.45-213.03-7.99-313.19-17.35-35-3.27-69.63-10.85-103.91-18.01-3.65,3.25,24.51,89.69,27.19,93.94.5.79,12.11,12.96,12.86,13.51,14.26,10.39,58.92,20.04,72.61,10.3,3.46-2.46-1.94-26.22,13.56-38.21,8.54-6.61,11.93-2.51,19.25-4.35,1.23-.31,10.28-15.39,19.45,2.26,14.66,28.2-6.13,35.38-23.35,50.51.02,7.72,61.31,15.91,70.74,16.52,13.16.86,89.08-1.13,94.84-9.03.59-.81-3.93-11.98-2.55-18.82,6.05-29.99,76.5-49.84,61.48,1.08-2.15,7.3-19.06,17.83-25.02,22.9-1.55,1.32-8.4,2.32-3.81,6.88,5.73,5.7,57.15,6.78,67.72,6.01,12.86-.94,75.18-12.96,82.9-19.48,5.61-4.74-1.8-28.68,22.98-43.27,29.82-17.56,42.63,8.16,25.12,31.16-3.14,4.12-24.66,19.42-21.04,22.58,15.6,4.45,105.14-13.95,107.89-25.84.56-2.41-2.76-12.13-2.74-17.73.14-45.13,53.35-46.61,51.15-8.96-.31,5.29-7.65,9.64-5.73,16.4ZM378.19,954.88c1.9-29.66-11.69-30.22-37.4-26.85-43.41,5.68-104.3,25.55-118.21,71.5-21.25,70.22,38.2,98.1,95.27,110.54,46.95,10.23,93.67,11.78,141.62,10.42l-23.07-35.62c-21.83-.34-43.72-1.21-65.37-3.89-38.48-4.77-110.98-12.03-118.62-59.06-9.59-59.04,85.23-71.15,125.78-67.03ZM1021.71,964.4c-9.73,1.49-27.85,22.8-15.42,26.45,14.88,4.37,36.95-29.75,15.42-26.45ZM383.71,967.43c-36.08-1.91-90.63-.76-115.51,29.54-5.27,6.42-11.95,15.65-9.29,24.21,12.84,41.23,130.93,48.74,167.43,48.1l-42.64-101.86ZM531.74,969.95c-18.17-2.99-35.75,7.73-36.1,27.07,2.35,2.51,38.41-16.02,36.1-27.07ZM730.48,985.01c-17.32-.61-40.48,11.31-42.11,30.1l26.88-13.73,15.24-16.37ZM905.15,985.02c-13.44.05-25.83,11.93-33.06,22.59,13.18-3.17,25.99-10.76,33.06-22.59ZM1085.81,994.04c-14.09,3.14-24.26,13.8-38.99,16.68-32.95,6.46-35.25,9.02-64.76,19.55-18.12,6.47-69.21,18.25-87.05,16.96-11.91-.86-21.97-13.58-26.89-13.51-4.4.06-19.71,7.72-26.85,9.66-17.35,4.72-44.39,11.82-64.61,12.71-21.36.93-53.17-2-73.27-9.37-6.83-2.5-11.94-9.98-19.73-10.5-6.92-.46-24.17,6.79-33.78,8.16-37.14,5.28-97.6-.17-133.1-12.8-7.99-2.84-20.23-12.77-25.89-13.51-9.04-1.18-24.48,4.24-38.61,2.71-16.16-1.75-29.52-9.95-43.91-16.26,47.08,107.22,114.91,210.23,237.21,235.53,109.33,22.62,218.57-1.7,306.18-68.46,47.57-36.25,80.63-87.21,112.44-137.5,3.01-4.75,23.65-38.1,21.63-40.07ZM504.03,1220.76c-14.68,1.05-69.8,5.41-74.36,22.18-3.75,13.79,42.04,21.13,52.44,22.05,79.38,7.06,166.63,6.53,247,8.96,83.88,2.54,189.53,12.68,271.19.41,4.1-.62,9.19,3.41,13.25,1.4,1.98-.98,15.14-18.83,15.17-21.27.1-8.92-21.94-17.45-29.43-18.87-26.68-5.05-87.73-9.95-113.81-6.82-23.04,2.77-55.51,20.91-82.57,25.84-65.88,12-138.94,4.34-201.84-18.28-10.96-3.94-24.11-14.62-34.88-16.31-16.06-2.52-45.14-.51-62.17.7Z"/>
  <g>
    <path class="cls-1" d="M687.28,246.22c-4.81,7.03-26.52,23.68-28.5,30.28-3.8,12.69,9.94,32.98-5.11,45.99-9.15.05-.78-11.14-8.8-18.23-9.43-8.35-36.48-4.56-42.5-23.73-14.64-46.56,32.61-36.81,45.24-51.43,11.4-13.2-4.65-46.34,16.57-52.93,27.77-8.63,38.25,47.94,23.1,70.07ZM678.26,240.18c8.87-11.5,17.63-33.88,2.24-43.81-27.25-17.57-16.69,23.54-20,36.57-7.13,28.14-56.66,17.53-52.33,38.58,2.64,12.82,24.49,12.67,33.12,18.24,6.44,4.16,5.57,9.82,10.89,11.65,1.34-11.57-2.81-27.82,2.23-38.44,2.83-5.96,19.58-17.26,23.86-22.8Z"/>
    <path class="cls-1" d="M729.78,284.11c2.84,2.86,4.28,11.75,4,15.86-1.49,22.15-27.51,16.22-40.29,20.17-5.72,1.77-7.16,9.65-14.17,8.39-9.42-10.78,33.03-61.97,50.46-44.42Z"/>
    <path class="cls-1" d="M607.02,337.56c-9.48,1.42-4.4-7.82-12.02-13.55-15.4-11.58-43.72-3.43-35.81-40.31,31.14-10.58,51.14,26.58,47.83,53.86ZM590.38,303.16c-2.88-2.69-15.64-15.06-19.46-10.75-8.48,9.56,17.69,13.51,22.53,15.08,4.83-3.12-1.5-2.86-3.07-4.33Z"/>
  </g>
  <path class="cls-1" d="M649.19,744.12c10.08-2.03,10.12,4.13,14.99,10.54-5.48.44-13.13-5.54-14.99-10.54Z"/>
  <path class="cls-1" d="M1062.31,716.29c.68,1.02,24.02,9.62,17.47,15.74-5.18,4.84-28.66-12.84-21.03-24.06,5.51-.94,1.62,5.4,3.56,8.32Z"/>
  <path class="cls-1" d="M1127.96,713.97c-10.72,2.72-3.58-8.55-6.29-11.89-1.56-1.92-11.39,3.74-8.74-6.15,14.9-2.16,16.4,4.86,15.02,18.04Z"/>
</svg>