<?xml version="1.0" encoding="UTF-8"?>
<svg id="Ebene_1" data-name="Ebene 1" xmlns="http://www.w3.org/2000/svg" viewBox="0 0 1500 1500">
  <defs>
    <style>
      .cls-1 {
        fill: #0a0a0a;
      }
    </style>
  </defs>
  <g>
    <path class="cls-1" d="M936.1,367.13c6.51,8.65,16.47,6.14,23.58,16.94,29.69,45.08-47.46,39.47-55.17,59.06-.51,10.75,15.13,19.88,18.59,25.9,30.67,53.31-50.76,51.01-68.37,77.61-3.87,5.85-3.26,18.67-13.76,17.8-3.21-31.81,41.24-68.81,35.59-97.03-6.3-31.44-84.21-33.07-92.05-70.58-4.33-20.71-1.25-29.2,19.56-33.21,37.2-7.17,97.89-12.74,132.03,3.52ZM921.05,373.18c-29.07-9.47-67.99-3.36-96.95,1.44-11.3,1.87-22.74,3.99-34.29,3.34-1.41,46.87,71.34,38.85,88.43,75.53,12.72,27.3-1.88,44.4-11.75,68.8,11.57-8.03,50.7-17.75,54.49-29.94,5.42-17.4-36.42-38.29-18.28-63.18,8.35-11.46,54.67-18.65,55.79-25.88.84-5.44-16.66-23.61-18.98-24.5-5.14-1.98-10.22.15-15.22-.9-2.2-.46-2.47-4.44-3.26-4.69Z"/>
    <path class="cls-1" d="M1072.59,543.4c-2.11,2.12-36.51-7.9-41.75.36-5.2,8.19,15.75,38.21-11.74,46.85-22.12,6.96-40.13-2.58-60.77,5.47l-9.04,28.52c-1.69-14.76-4.69-46.07,9.2-55.45,5.4-3.65,31.99-10.7,33.06-15.72,3.1-14.52-36.76-32.62-18.33-50.74,16.56-16.28,90.24,6.75,97.88,22.63,1.6,3.34,2.56,17,1.48,18.08ZM1051.54,522.37c-1.86-1.84-46.62-14.11-50.38-14.34-7.58-.45-24.5,1.91-21.49,12.41,1.5,5.24,13.14,7.85,15.98,17.02,3.29,10.62,4.36,23.16-5.77,30.01l-22.56,11.98c13.01,2.26,48.01,4.77,57.22-4.38,9.87-9.81-9.14-34.33,6-42.14,2.65-1.36,28.41-3.25,20.99-10.57ZM1060.55,528.39c-4.22-2.16-8.03,1.9-5.99,2.95,4.22,2.16,8.03-1.9,5.99-2.95ZM965.07,582.44c0-2.05-1.66-3.71-3.71-3.71s-3.71,1.66-3.71,3.71,1.66,3.71,3.71,3.71,3.71-1.66,3.71-3.71Z"/>
  </g>
  <g>
    <path class="cls-1" d="M1158.48,966.23c-17.74,33.85-39.33,80.99-79.87,93.06-27.45,8.17-58.72,10.67-84.48-3.41,1.21-17.93,37.91-139.59,33.32-145.48-2.79-3.58-13.59,12.62-20.29,14.27-8.8,2.17-17.93-.8-25.71.82-1.48.31-16.98,17.26-22.16,20.49-7.74,4.82-23.81,12.45-32.72,12.69-16.16.43-27.52-15.45-36.06-15.18-5.04.16-8.09,6.22-12.71,8.26-21.53,9.52-43.12,17.05-67.13,11.48-10.82-2.51-18.13-13.39-28.36-14-15.3-.92-47.48,15-69.21,14.67-6.94-.11-19.62-3.54-26.45-6-4.51-1.62-15.04-6.76-17.14-11.39,14.4.07,29.19,8.38,43.6,8.35,7.17-.02,59.28-11.76,61.34-14.72,2.11-3.03-3.61-25.03-2.46-33.99,2.74-21.41,18.23-38.2,40.47-37.97,39.07.4,17.59,42.18,1.38,58.71-5.37,5.48-29.17,16.28-20.91,25.46,2.91,3.23,44.59,3.79,51.81,2.43,5.55-1.05,37.54-16.57,39.8-20.36,3.59-6.03.65-17.62,1.78-25.3,2.62-17.8,34.85-59.98,50.56-36.02,7.71,11.75-3.05,29.94-10.46,40.03-8.9,12.13-48.09,34.73-8.67,36.4,18.36.78,49.04-13.84,57.23-30.22,2.74-5.49-8.51-18.59-4.65-26.99l9.03,21.05c11.41-6.31,20.71-31.19,18.1-43.17-.37-1.71-11.91-3.13-6.08-7.95,1.62-1.34,10.38,2.59,12.01,4.49,5.94,6.88,2.94,17.08.94,25.03-2.78,11.02-23.47,32.7-3.06,27.01,12.54-3.5,26.06-13.8,31.29-25.87,12.93-29.81.1-31.54,33.01-54.22,41.05-28.29,116.69-47.61,124.34,22.03,4.58,41.72-13.37,70.99-31.45,105.5ZM1006.43,1054.76c12.74-2.94,32.35,3.19,43.22,2.13,58.82-5.75,93.61-77.49,115.34-124.8,17.36-37.8,42.67-109.06-24.38-108.61-23.31.16-72.25,18-85.69,37.64-14.85,21.69-21.89,84.55-28.32,113.06-6.07,26.89-15.8,53.23-20.16,80.58ZM931.2,874.31c-11.04-10.93-44.33,38.21-36.07,51.11,5.46,6.29,44.32-42.94,36.07-51.11ZM825.94,877.3c-23.13-5.68-42.32,12.51-44.89,34.88-6.03,52.43,57.25-22.27,44.89-34.88Z"/>
    <path class="cls-1" d="M663.46,943.48c-11.07-11.5-18.3.47-30.13,4.41-17.29,5.76-31.41,4.24-44.99-8.95,10.83,2.47,19.52,6.13,31.32,4.38,2.86-.43,27.68-10.89,28.6-12.14.84-1.14-3.35-18.9-2.92-25.23.92-13.58,14.61-49.59,29.41-52.24,21.07-3.76,24.65,16.87,21.14,33.45-4.97,23.49-34.74,33.01-32.42,56.32ZM668.43,912.32c8.83-8.13,32.11-49.39,14.56-53.06-14.68-3.07-30.36,48.5-28.51,60.13,1.96,2.07,11.84-5.12,13.95-7.07Z"/>
  </g>
  <g>
    <path class="cls-1" d="M528.12,305.75c-3.19-2.69-5.11-7.66-7.92-8.54-15.25-4.75-38.43,5.55-36.25-28.65.11-1.66,8.8-29.97,9.71-31.87,3.88-8.07,13.26-7.7,17.83-12.25,4.55-4.54,3.93-12.59,12.47-17.61,5.27-3.1,50.69-21.65,53.62-21.56,5.08.16,29.19,2.73,32.69,3.75,1.62.47,24.19,17.17,25.55,19.67,3.45,6.36,1.83,27.61-.01,34.79-2.7,10.5-5.98,22.5-9,33.11-2.1,7.37-13.9,9.81-14.55,24.61-.44,9.94,12.73,1.08,17.57,5.31,1.38,1.2.25,5.03.58,5.27-9.96-3.58-19.22,25.27-20.32,32.3-2.76,17.65,3.01,31.77,2.26,48.94l39.1,2.97c-1.16-12.69-11.63-80.83-21.04-84.21.71.51,5.65-.48,8.82,1.58,10.99,7.12,15.01,64.52,22.02,80.38,3.25,7.35,31.85,35.74,20.38,42.99-3.59,2.27-11.39.77-12.14,1.41-1.04.88,6.07,21.42,3.05,27.06,3.22-1.18,5.22-2.42,8.91-1.64,5.18,1.11,43.52,12.04,45.2,13.7,9.07,8.93-21.49,5.49-24.04,2.95,1.29,7.29-5.96,20.51-2.42,26.48,2.25,3.81,34.36,9.35,40.09,9.61,76.13,3.55,51.67-39.93,13.49-73.72-24.93-22.07-55.92-35.83-80.43-54.93-3.67-2.86-8.16-3.49-6.82-9.69,3.02-2.84,43.9,23.1,49.7,26.97,22.69,15.17,118.35,87.15,70.38,115.67-7.32,4.35-39.37,7.57-48.65,7.03-10.92-.63-44.28-18.63-49-11.43-1.2,1.84-3.91,38.58-3.78,43.73.83,32.6,13.4,69.96,14.75,103.44,29.39-3.33,58.88-1.84,88.39-2.69,73.09-2.12,213.88-5.41,280.34,20.53,16.41,6.41,19.71,10.73,22.09,29.14l-21.07,81.25c31.23-15.55,58.29-23.16,93.87-18.72,4.96.62,26.35,9.08,30.55,11.51,17.71,10.28,32.83,41.86,33.9,61.76,2.26,41.76-3.41,61.91-19.15,99.6-17.28,41.38-51.95,107.21-86.92,138.78-20.12,18.17-57.07,26.26-83.78,27.51-9.58.45-43.02-4.06-46.79-1.7-6.86,4.27-16.93,42.61-27.06,54.21-9.01,10.32-37.39,21.15-38.59,23.06-5.9,9.44,8.56,54.78,1.14,68.83-46.75,22.99-102.13,23.88-153.51,20.9-32.63-1.89-68.28-6.86-97.58-21.27-3.74-5.25,26.66-58.68,29.86-68.89-37.09-9.84-70.21-24.33-90.27-58.67-7.39-12.66-10-29.78-14.98-38.59-2.24-3.97-3.6-1.79-7.55-2.09l-19.37,139.53c20.84,18.94,75.77,9.27,78.03,47-35.83,3.85-70.01-9.1-105.31-8.98,1.44,4.99,3.08,24.54-.37,26.67-30.65,1.41-61.51-6.59-89.84-17.67.36,8.24,1.73,20.59-8.15,23.51-26.39,7.79-13.22-29.25-12.8-42.95,1.6-52.5-3.87-106.19,2.88-158.05h-52.64c-4.27,0-21.84-10.24-24.02-15.09-3.05-6.81-2.02-20.5-1.23-28.22,6.8-66.38,25.97-158.18,39.59-225.11,13.81-67.82,35.62-133.97,47.48-202.31-.23-10.63-15.14-4.78-17.83-12.46l-6.41-118.43c-29.76,6.4-135.2,45.25-121.99-18.22,12.36-59.38,150.89-134.31,209.23-141.2,3.38,2.65-7.32,11.09-8.48,11.68-8.55,4.4-19.81,5.83-28.78,9.68-50.83,21.87-139.38,64.48-161.81,117.93-2.87,6.84-8.4,17.62-.39,23.34,28.17,20.09,82.3-19.03,112.21-9.21l1.94-9.17c28.73-5.88,56.12-16.11,84.56-23.19,8.57-2.14,18.38-6.07,20.89-6.68,4.81-1.17,28.8-1.05,30.83-3.25,1.02-1.11,1.54-24.99,3.16-29.92-39.41,11.63-80.63,14.7-120.91,21.95-14.22,2.56-29.35,8.98-43.34,10.82-1.69.22-21.07,1.58-13.21-5.66,1.85-1.71,41.82-11.45,48.62-13.08,28.85-6.94,65.9-14.78,95.04-19.27,12.35-1.9,26.57,1.31,37.6-1.5,9.12-2.32,21.3-18.58,32.32-21.83v-57.15c0-.8,2.16-1.85,2.61-3.46,2.97-10.58-9.89,1.86-12.03,3.23-6.91,4.39-12.78.33-8.55,17.72.5,2.06,11.65,3.4,4.35,20.08-.78,1.79-22.9,29.27-24.57,30.28-16.56,9.98-26.16-4.35-33.48-17.23-2.04-3.58-14.86-31.33-15.14-33.29-1.53-10.61,9.11-11.17,14.64-17.27,10.57-11.66,1-13.67-.02-25.62,5.57,4.69,9.79.17,11.32,14.33,1.65,15.29-8.53,21.6-7.86,25.74.88,5.48,15.83,20.89,11.58,32.12-5.14-7.87-8.47-16.24-13.61-24.1-2.31-3.53.73-7.76-7.43-5.96,10.33,29.7,24.59,72.8,51.06,25.52-8.85-1.24-15.73,13.64-22.51,13.73-7.79.1-5.8-6.56-7.51-9.19,6.14,5.98,32.25-17.15,34.57-24.22,2.14-6.51-4.53-18.21-1.07-23.53.9-1.38,7.7-1.41,10.77-4.25,9.18-8.46,29.88-56.28,27.44-66.54-1.24-5.2-29.26-17.38-33.81-16.98-1.52.13-13.17,16.83-22.69,19.89-11.89,3.83-21.67-4.15-33.23,1.35-1.05,6.1,8.41.48,9.15,4.52,2.01,11.05-7.35,23.64-6.16,37.55ZM633.39,414.03c12.05-14.47-32.08-16.03-39.22-13.76-13.84,4.4-32.33,24.45-26.93,40.83,2.33,2.6,26.45-13.16,32.25-14.35,17.92-3.67,39.83,6.42,51.96-12.68l-18.06-.04ZM663.5,468.18c-1.44-34.8-7.41-38.3-42.14-36.09l6.05,45.13,36.09-9.04ZM648.45,492.26c6.15.1,14.14-3.04,12.04,6-2.25,1.71-27.59-1.07-30.09,9.01l15.04.06-8.43,6.55c3.48,40.79,12.39,81.94,19.11,122.63,2.25,13.62,4.03,27.3,6.54,41.57,1.78,10.12,10.23,73.07,12.99,75.75,1.57,1.53,21.93-.77,26.96.15-9.93-84.27-27.25-168.17-33.07-252.71,4.92,2.2,20.09.9,22.74-2.79,1.92-2.68,2.43-18.3.86-20.83-7.13-11.46-64.51,8.53-77.77,8.56,7.39-10.15-.97-15.64-2.31-23.26-1.13-6.38.13-28.31-8.12-27.98-17.86.72-34.03,16.35-50.27,22.15l-122.81,32.13,6.45,94.33c13.79,10.61,40.64,6.07,53.81-5.5,5.35-4.7,8.38-13.08,8.99-13.61,7.42-6.48,5.11,11.07,8.75,13.72,12.32,8.93,36.62-5.09,43.87-16.73l4.46,15.03c15.61,10.11,35.14-20.47,37.66-21.12,13.69-3.53,3.45,11.04,9.27,15.41,4.45,3.35,26.56-1.44,28.07-3.57,1.32-1.86-5.38-40.18-7.19-45.07-4.67-12.57-27.96-16.94,7.4-26.89,7.9.44,8.34.03,15.04-3.01ZM599.88,570.99c-8.82-5.43-26.47,25.79-40.45,14.78-3.41-2.69-3.87-8.98-4.29-9.26-4.22-2.88-25.95,25.56-46.37,11.73-3.49-2.36-4.79-9.29-6.2-8.73-2.42.97-6.91,7.93-10.74,10.32-16.27,10.14-32.39,12.95-50.92,7.73l-.03,15.04,94.9.11,98.53-9.09c6.82-2.9.72-24.36,2.1-30.13-1.58-1.88-21.61,11.94-33.17,4.44-2.08-1.35-2.35-6.33-3.34-6.94ZM648.12,669.44l-6.11-54.95-3.95-4.12c-23.02,3.67-49.03,7.36-72.21,8.35-16.85.72-98.86-4.05-105.57,5.73-13.4,76.2-37.13,149.42-52.19,224.56-2.49,12.44-5.17,23.68-4.07,34.98l-35.22,197.73c4.08,4.69,84.52,3.48,97.78,3.26,26.36-.45,46.79-2.04,72.22-5.99,17.99-2.79,39.67,2.5,58.52-3.18-20.24-120.86-46.72-240.56-77.31-359.07,3.56-35.83,100.92-42.25,128.12-47.31ZM1042.55,729.92c1.83,2.03,48.31-18.41,37.84-33.22-4.94-6.99-83.53-19.39-96.93-20.56-83.02-7.26-187.76-9.84-270.13-.08-21.23,2.51-5.62,20.84-7.71,35.77,65.81-.97,131.24-8.37,197.13-6.12,19.76.68,43.12,4.73,63.08,6.11,17.13,1.18,58.9-3.07,72,6.22,5.87,4.17,4.11,11.21,4.72,11.88ZM654.32,684.93c-22.53-2.77-115.02,10.46-124.85,29.94-1.44,2.85.83,13.15,2.28,15.93,3.61,6.94,37.69,15.49,45.85,14.19,7.15-1.14,15.15-13.89,27.06-18.27,17.15-6.31,37.91-5.52,55.84-8.87l-6.17-32.92ZM916.17,1239.78c-.91-14.5,0-30.4,0-45.12,0-8.15-20.32-1.52-25.44-1.37-31.72.94-74.49,2.55-105.36-.19-7.06-.63-22.31-1.95-25.62-8.97h130.85c3.53,0,32.28-8.56,37.53-10.6,36.48-14.17,37.66-47.23,54.11-78.4,18.64,1.72,33.41,6.16,52.86,4.87,70.85-4.7,101.29-39.46,134.26-97.35,30.33-53.23,94.45-176.51,13.54-213.11-13.22-5.98-46.13-10.12-59.9-8-10.64,1.63-65.87,32.26-68.45,29.56l18.03-81.17c-2.51-1.96-44.61,18.61-52.98,20.69-91.91,22.87-177.49,17.27-270.27,15.25-71.97-1.57-147.03,4.69-215.19-20.92,16.69,41,22.08,83.99,30.94,126.95,6.13,29.71,14.61,54.51,14.14,78.83-.03,1.7,5.02.84,6.34,6.07,12.47,49.37,17.09,155.84,51.92,190.14,19.44,19.15,54.8,26.01,80.14,34.2-3.81,10.84-6.46,21.92-10.99,32.6-16.42,38.65-33.71,42.61,24.57,48.54,46.15,4.7,113.33,6.89,157.82-4.55,9.42-2.42,19.8-9.47,30.18-10.49,1.1-3.09-2.94-6.12-3.03-7.49ZM531.13,1093.89v112.8c0,1.04,3.16,18.68,3.66,20.4s10.32,14.94,11.46,15.61c3.68,2.14,45.2,13.41,49.98,13.48,4.75.07,8.84-.5,10.09-5.84-10.39,3-16.8-7.38-20.35-8.83-6.64-2.72-19.43,1.89-21.75-10.75l15.02-139.87c-16.2-.27-32.31-.81-48.12,2.99ZM492.04,1093.87c-1.66-1.67-41.59,3.01-43.88,5.95l-4.39,134.07c6.74,26.92,34.38,38.89,60.28,37.45-1.71-15.28-23-12.72-31.81-23.81-6.94-8.73-4.51-17.8-3.42-28,1.82-17.08,27.97-120.92,23.23-125.67ZM519.08,1093.87c-5.87-.14-12.36-1.46-14.44,5.11l-27.9,140.36c8.4,2.49,46.87,30.6,51.37,25.99l-9.02-171.47Z"/>
    <path class="cls-1" d="M633.41,495.27c-2.35-.13-15.68.42-9.03-5.98,2.02-1.95,25.18-3.64,30.07-3.01.77,2.88-3.97,5.06-6,5.99-8.62-.14-8.79,1.25-15.04,3.01Z"/>
    <path class="cls-1" d="M591.28,296.75c-.47,15.13-24.33,15.95-33.04,7.46-.78-9.75,13.21-1.09,18.92-1.98,5.02-.78,8.31-6.7,14.13-5.48Z"/>
    <path class="cls-1" d="M600.01,272.99c7.21,11.72-14.93,13.19-11.71-3.32.95-1.04,11.39,2.8,11.71,3.32Z"/>
  </g>
</svg>