<?xml version="1.0" encoding="UTF-8"?>
<svg id="Ebene_1" data-name="Ebene 1" xmlns="http://www.w3.org/2000/svg" viewBox="0 0 1500 1500">
  <defs>
    <style>
      .cls-1 {
        fill: #0a0a0a;
      }
    </style>
  </defs>
  <path class="cls-1" d="M565.31,731.01l-2.23-18.66,26.46-44.88c8.19,5.84,4.78,6.92,2.73,13.76s-18.12,56.48-26.96,49.78Z"/>
  <path class="cls-1" d="M628.56,809.33c-19.31,11.91-7.57-33.37-4.49-43.82,1.28-4.33,3.07-15.81,8.5-15.75-.62,10.04,2.4,55.62-4.02,59.58Z"/>
  <g>
    <g>
      <g>
        <path class="cls-1" d="M1096.5,1153.76c-4.67,6.19-6.85-.44-7.52-5.57-1.61-12.27,3.47-23.54,2.29-35.63-1.3-13.41-30.85-115.38-36.9-128.04-5.32-11.15-21.05-24.01-25-38.56-9.78-11.22-23.1-1.77-35.59-1.53-19.23.37-38.59-1-57.77.22-1.71,10.48-5.12,20.62-8.66,30.61-17.43,49.17-10.61,104.27-25.35,158.11-1.64,6.01,4.02,11.06-7.49,9.15,12.67-65.65,4.66-133.19,15.21-199.43-34.17-15.85-14.64-57.51-11.55-86.8,1.86-17.62,11.92-88.19,3.85-97.26-12.4-13.93-75.62-25.73-69.28-61.66,7.95,7.89,12.06,16.49,20.87,24.02,37.85,32.33,94.62,49.77,143.6,50.94,8.36.2,63.08-1.81,65.46-4.07.91-.87-.15-10.56,1.86-14.85,16.4-35.06,82.42-60.15,87.44-103.8,1.09-9.51-7.9-25.82,4.35-30.79,19.7,66.25-43.89,96.29-82.48,136.31-4.59,59.71-20.07,131.13-18.45,190.97,1.11,41.29,41.11,114.65,41.11,149.68v57.99ZM1059.08,779.68c-31.69.65-63.65,6.56-95.54,3.88-16.41-1.38-29.62-10.14-46.62-7.62.5,4.2-.73,9.12-.14,13,1.39,9.09,124.75,14,138.48,3.73,5.3-3.97,4.05-7.18,3.82-12.99ZM1055.36,809.57c-48.67.65-94.27,6.31-142.15-7.46-2.17,41.09-12.13,81.92-10.83,123.05l141.76,4.16,11.22-119.75ZM928.15,944.3l-11.21-.06.02,18.72c7.99-2.31,7.49-12.43,11.19-18.67Z"/>
        <path class="cls-1" d="M999.23,1020.96c1.09,6.53,25.75,51.66,22.44,54.21-14.49,11.2-19.21-38.22-29.88-41.09-14.1,62.89-30.49,125.65-50.71,186.87-8.98,27.21-31.87,100.36-43.78,120.97-2.36,4.09-12.09,13.43-17.76,13.93-4.19,8.05,51.52,10.6,52.34,26.08-13.78-3.22-36.55-4.83-48.87-9.08-9.18-3.17-10.17-12.59-13.63-13.39-2.31-.53-34.58-4.01-36.41-3.85-4.22.37-5.06,33.22-17.12,24.44l71.42-229.78c5.31-.42,13.21-2.85,10.8,5.2l-59.78,190.91c14.71-.07,37.79,12.01,44.1-4.56,45.67-127.82,103.28-256.09,109.38-393.78,3.96-1.5,7.44,12.32,7.44,13.07,0,17.21-2.57,44.43,0,59.86Z"/>
        <path class="cls-1" d="M1032.88,1101.39c3.91,27.42,2.59,52.45-.42,80-4.32,39.55-13.6,99.61-22.93,137.93-1.33,5.48-4.54,9.09-6.56,13.98l44.73-.14,33.12-166.77,11.9-8.89-41.11,190.75c21.45,10.72,71.74,1.61,87.21,14.77,6.34,5.39,8.48,25.58,2.94,32.42-10.08,12.43-105.37,10.55-125.86,9.14-40.77-2.81-11.67-31.55-13.21-54.72-.54-8.14-10.55-10.44-10.81-18.22,10.51-46.21,23.52-95.88,29.34-142.8,3.34-26.9,1.01-57.16,4.19-81.92.87-6.78-1.29-6.08,7.47-5.55ZM1137.68,1389.43c.5-.5.37-9.99-.6-12.5-5.69-14.78-60.59-9.4-78.24-15.29-10.48-3.5-10.33-15.24-20.26-17.12-38.6-7.33-31.59,14.45-35.62,44.92,13.72-2.71,26.78,2.87,39.33,3.71,12.1.81,91.47.2,95.39-3.72Z"/>
        <path class="cls-1" d="M1025.39,674.92c-2.57,14.28,3.42,12.62,16.49,10.87,21.88-2.93,55.8-23.7,62.97-45.56l6.58-32.64c10.25,44.64-23.18,83.61-66.44,89.07-9.9,1.25-21.03-4.59-27-1.42-6.45,3.42-16.57,25.82-19.55,27.44-15.13,8.24-16.12-5.04-14.12-17.83l5.56,7.45c1.83-.76,26.68-25.42,28.2-27.92,4.98-8.2,4.13-19.93,10.85-26.58,5.89-5.83,14.67-4.8,15.23-5.38.91-.97-7.6-24.17-8.34-25.28-1.11-1.65-14.63-6.34-19.14-8.96-6.57-3.81-9.59-12-17.37-10.61,1.69,13.52-14.44,16.34-15.37,24.35-1.44,12.48,7.02,9.25,9.59,13.02,10.17,14.94-12.65,12.29-24.18,14.98-3.64-10.02,6.76-5.99,7.54-9.86,1.54-7.58-2.17-17.82.43-25.25,1.84-5.26,9.12-4.99,10.3-6.6,2.5-3.42-15.18-32.1,24.68-33.33,67.57-2.09,81.09,85.68,13.11,90.04Z"/>
        <path class="cls-1" d="M954.32,1389.47c.39,5.23-.86,21.33-6.21,22.58-11.17,2.61-56.08.69-70.42-.19-19.58-1.19-41.89-6.13-61.78-7.47-6-4.87.43-6.81,5.56-7.47,36.29-4.64,93.71,11.16,123.36,4,5.19-1.25-2.81-15.28,9.5-11.45Z"/>
        <path class="cls-1" d="M980.51,671.15v26.19s-3.7-7.44-3.7-7.44c-27.86-.61-58.2,4.65-82.31-13.14l78.53,5.6-3.73-11.16,11.2-.05Z"/>
      </g>
      <g>
        <path class="cls-1" d="M901.96,184.82c.38,11.45.53,22.49-1.69,33.86-2.63,13.46-16.79,41.52-24.21,54.28s-43.27,66.62-55.1,68.06c-24.28,2.96-6.57-18.83-5.71-24.13.7-4.32-5.78-8.8-6.66-14.36-4.19-26.71,23.31-85.73,47.06-98.55,6.79-3.67,15.39-2.74,19.16-5.16,5.79-3.72,7.02-20.36,27.16-14ZM892.61,188.58v3.74c2.43-1.25,2.43-2.49,0-3.74ZM890.72,196.08l-3.73,11.18c-25.45-14.63-51.35,34.82-59.36,54.76-4.38,10.91-16.26,57.3,1.38,57.42,7.02.05,72.24-104.39,61.71-123.36Z"/>
        <path class="cls-1" d="M1145.13,121.24c13.58,57.51-26.78,20.01-55.94,18.45-.98-2.34.14-4.97-.18-7.23,2.22-.09,4.43-3.27,11.26-2.18,8.97,1.43,28.55,14.43,35.11,12.91,5.89-1.37,11.38-16.54,9.74-21.95Z"/>
        <path class="cls-1" d="M1145.13,121.24c-.4-1.33-16.3-17.3-19.62-19.66-34.1-24.16-95.55-21.87-134.68-13.06-11.14,2.51-30.37,7.72-36.49,17.72,34.1,2.97,68.37,4.61,101.8,12.32,13.22,3.05,19.28,13.13,32.85,6.43.27,2.43-.31,5.08.02,7.47-28.12,1.2-46.06-6.65-73.39-10.78-11.62-1.76-59.06-1.56-65.26-5.81-16.29-11.16,6.41-29.48,18.95-33.89,36.92-13,116.79-13.36,150.9,6.18,17.37,9.95,20.62,14.92,24.91,33.08Z"/>
        <path class="cls-1" d="M1096.51,158.69c1.44,9.65-1.52,7.79-9.3,7.44-25.64-1.16-60.89-13.1-89.88-14.92-20.42-1.28-41.25.83-61.67-.02,3.47,16.06,6.59,40.19-7.46,52.35.75-22.43,4.65-41.12-.05-63.59,56.85-2.1,113.75,3.07,168.37,18.74Z"/>
        <path class="cls-1" d="M840.42,366.58c-5.68,5.63-11.35,13.66-20.74,12.77l6.16-17.72,48.1-45.78c-.11,18.72-20.32,37.65-33.52,50.73Z"/>
        <path class="cls-1" d="M815.9,368.19c2.54,1.3-2.19,6.35-7.44,3.66-2.54-1.3,2.19-6.35,7.44-3.66Z"/>
        <path class="cls-1" d="M1169.45,282.11c2.43,1.25,2.43,2.49,0,3.74v-3.74Z"/>
        <path class="cls-1" d="M1158.54,77.9c33.66,27.28,41.59,80.55,22.08,118.11-2.5,4.82-4.06,11.81-11.14,11.31-4.7-14.75,7.51-26.95,9.32-43.04,5.02-44.75-12.79-77.12-52.86-96.79-72.4-35.54-217.08-26.71-235.17,68.71,1.06,1.2,26.64-9.85,29.88,3.72-9.16-.26-17.03-.95-26,2.08-36.99,12.47-116.73,154.83-116.44,194.4.12,15.97,9.32,19.71,10.5,26.67,1.08,6.4-6.79,37.94-2.69,42.48,14.41-.11,20.53-12.7,28.08-22.4,10-2.39,3.62,9.28,5.66,11.09,3.07,2.73,53.06-13.83,65.39-14.07,69.91-1.37,205.53,62.53,254.23-15.88,10.59-17.05,14.78-46.7,20.21-66.01,1.78-6.33-2.77-10.44,7.97-8.65-1.86,41.21-17.14,87.13-34.11,124.84-9.29,20.63-33.87,66.92-48.09,82.85-8.88,9.95-9.78,3.24-18.75-1.95,8.53,23.54-2.11,35.03-18.72,50.52,17.68,10.75,24.93-11.14,33.79-15.02,7.26-3.18,23.27,4.48,32.82-11.89,13.05-22.38-3.03-24.15-3.23-25.68-.56-4.37,23.69-47.37,28.14-57.92,21.15-50.21,52.17-143.18,50.81-196.46-.13-5.09-.04-10.98-3.84-14.83,17.42-.8,15.59,27.39,14.82,41.14-2.64,47.15-29.92,121.09-46.75,166.48-10.52,28.38-19.09,36.25-25.11,68.39-.99,5.28-6.37,9.97-6.4,15.81-.03,5.52,13.7,36.75,16.59,46.79,4.95,17.17,9.48,34.85,13.08,52.35-10.61,1.92-6.13-2.54-8.41-8.21-9.22-23.03-13.56-53.62-21.55-77.82-6.07,3.79-21.06,5.71-24.48,11.16-6.42,10.22,10.36,25.04-5.38,22.53l-3.81-22.46c-10.75,6.63-21.39,16.45-35.17,14.98-8.83-.94-13.29-8.26-20.11-10.16-15.65-4.36-33.95-5.85-49.47-10.39-13.15-3.85-55.94-22.71-64.71-20.86-1.44.3-14.31,19.19-15.71,22.65-4.26,10.53-11.37,57.19-13.43,59.44-.37.41-8.93,3.57-10.77,2.37,4.1-6.92,14.32-47.5,11.16-50.55l-33.63-3.72c-8.83,41.99-23.24,88.01-29.21,130.2-1.4,9.9,8.85,22.07-4.5,19.4-5.17-44.38,11.65-84.6,21.39-126.34,6.9-29.54,10.08-59.44,22.94-88.21-23.47-16.93-29.3-70.36-63.89-53.78-32.8,28.1-55.95,63.69-81.57,98.02-35.67,47.78-69.1,88.91-87.79,147.9-15.89,50.16-21.65,98.89-40.43,146.79-3.39,8.65.57,31.28-13.89,38.58-4.52,2.28-16.33.12-18.1-2.67-13.52-21.34,30.88-121.24,38.78-149.01,11.56-40.63,11.52-76,27.36-114.8,18.38-45.02,64.62-122.07,103.54-150.86,8.81-6.51,27.13-11.78,31.99-17.63,4.82-5.81,14.26-32.16,14.85-40.43,1.5-20.97-11.02-33.99-11.42-52.48-.81-37.49,56.03-124.18,79.3-156.32,7.46-10.3,27.6-26.79,31.02-32.58,4.59-7.76,7.2-25.52,12.6-36.04,40.45-78.87,206.26-76.25,268.44-25.86ZM864.54,536.49c32.21,7.07,43.5-21.73,59.79-43.06-25.88,15.33-28.64,2.95-52.26-5.57l-7.53,48.63Z"/>
      </g>
    </g>
    <g>
      <path class="cls-1" d="M580.22,903.14c1.51,1.53,35.26-.6,43,.02,36.99,2.97,122.18,11.74,121.33,61.1-1.04,60.64-35.61,179.96-56.77,239.07-5.83,16.29-27.43,56.51-28.95,68.42-1.01,7.95.9,4.3,5.18,5.87,20.06,7.4,48.23-.67,56,26.54,8.06,28.21-38.42,47.69-60.44,54.27-52.57,15.71-196.67,8.66-251.46-4.48-99.76-23.91-64.48-74.35,18.72-71.09-17.85-24.22-36.34-53.7-37.4-84.19-62.11,4.8-135.64-1.69-145.56-77-10.39-78.9,60.98-106.36,126.66-110.24,2.83-2.91-2.49-56.37.98-68.25,9.05-30.99,117.76-40.58,147.04-43.76,31.48-3.41,37.07,10.76,52.39-26.21,13.93-3.2,7.88,28.5,9.28,29.93ZM546.57,914.34h-65.47c-8.04,0-50.16,10.85-60.82,14-33.98,10.04-66.56,26.22-17.78,49.64-2.2-38.47,45.57-40.98,75.34-44.45,22.81-2.66,61.94,9.07,68.73-19.19ZM728.75,941.6c-23.31-27.45-117.18-25.1-152.23-27.24,3.08,29.64,50.85,22.73,75.57,27.27,13.67,2.51,43.31,8.32,51.86,19.34,3.28,4.23,2.36,12.61,5.49,13.45,16.04,4.32,30.96-19.09,19.31-32.81ZM726.12,985.44c-68.45,22.45-150.55,22.75-222.73,18.84-38.56-2.09-88.28-6.64-121.39-26.34,4.15,10.6-4.43,28.47-3.99,35.33.26,4.09,9.39-.58,7.68,5.78-12.1-5.44-15.75,7.04-17.51,7.45-7.15,1.65-16.24-1.15-24.56,1.02-18.96,4.94-65.04,18.35-76.44,33.89-11.94,16.28-17.8,54.3-10.55,73.69,20.14,53.91,93.65,49.37,140.56,50.13,10.27,57.34,37.8,106.51,89.51,135.04-16.99,4.83-33.56-20.37-47.52-23.55-9.94-2.27-37.23-2.06-48.04-.97-13.37,1.35-45.02,9.55-33.59,26.5,3.41,5.06,35.13,14.6,43.13,16.71,60.73,15.97,208.83,22.26,266.52.9,71.66-26.53,46.85-49.89-17.17-51.03-28.76,47.88-70.09,67.73-125.28,53.09-6.68-1.77-9.67,1.05-8.07-8.55,35.44,7.62,69.92,5.47,97.39-20.46,33.22-31.35,63.98-123.98,77.32-169.58,15.12-51.67,25.19-104.92,34.75-157.87Z"/>
      <path class="cls-1" d="M378.22,1069.59c-3.32-10.74-37.65-4.63-46.56-1.67-9.84,3.27-23.57,13.9-31.61,20.77-1.84,1.57-17.76,23.96-15.42,7.06,4.81-34.71,72.15-49.65,100.68-42.59,2.02,14.51,12.55,92.99,4.25,99.02-2.19,1.59-47.21-1.72-53.96-2.56-16-2-49.05-11.1-49.92-30.73-.1-2.29,1.87-11.29,6.45-9.99,3.6,31.75,61.23,24.92,86.09,26.16-3.21-16.86,4.37-51.32,0-65.47Z"/>
    </g>
  </g>
</svg>