<?xml version="1.0" encoding="UTF-8"?>
<svg id="Ebene_1" data-name="Ebene 1" xmlns="http://www.w3.org/2000/svg" viewBox="0 0 1500 1500">
  <defs>
    <style>
      .cls-1 {
        fill: #0a0a0a;
      }
    </style>
  </defs>
  <path class="cls-1" d="M468.47,945.5c-16.86-16.39-17.45-36.24-14.18-59.5,3.87-27.56,38.18-57.84,39.31-83.98.61-14.07-18.84-126.46-24.36-138.28-4.92-10.53-19.2-25.24-25.48-36.16-11.76-20.46-59.4-107.19-54.52-125.41L874.02,118.27c3.96-15.88-17.59-21.74-13.46-36.7.72-2.59,29.38-32.13,32.19-33.44,22.16-10.3,39.7,36.75,54.4,43.49,15.32,7.03,22.73-6.55,33.54-4.87,16.82,2.62,66.92,60.12,80.64,75.56,25.11,28.27,72.62,82.93,87.29,115.75,2.42,5.42,1.97,10.46-3.91,7.54-4.89-2.43-29.8-45.16-36.6-54.07-25.04-32.83-79.02-98.26-110.21-121.82-12.03-9.09-22.44-12.04-36.37-3.53,56.43,71.04,114.08,141.89,156.01,222.92,25.9-4.03,19.21-28.72,36.15-39.84,11.38,17.8-24.19,48.18-24.51,52.51-.44,5.82,29.23,42.44,28.19,47.1-13.74,4.53-58.3,32.48-68.9,25.56-4.4-2.87-4.08-12.9-12.57-12.95-2.76-.02-27,15.64-27.38,17.22,5.14,33.04-2.02,84.76,3.78,115.2,2.06,10.83,13.01,13.26,16.15,20.08,1.26,2.74,1.95,40.8,1.18,44.44-1.09,5.24-8.4,9.68-9.98,19.14-1.78,10.64,2.08,61.08-.2,63.27-11.61,3.18-11.08-8.87-21.67-10.89-2.51,1.85-8.8,42.52-21.72,27.24l32.5-65.33-18.1-9c22.96.87,33.83-26.25,21.68-43.53-4.55-3.33-20.62,15.43-28.06,17.31-11.41,2.88-28.99-7.56-33.47,2.67-3.1,7.07,9.53,6.06,12.69,12.55,10.01,20.57-12.52,43.76-12.76,61.7l-7.25-18.12c-6.89-1.1-18.19,8.26-23.33,7.08-5.12-1.18-4.52-9.45-5.64-10.7,1.05,1.14,26.49-3.08,30.8-3.71,6.34-.92,6.1,1.88,5.43-7.15h-36.26c.46,2.93-.7,10.07.02,10.86-.38-.42-6.16,1.06-7.22-2.57-.05-17.86-44.42-126.4-39.89-131.57,4.38-5,9.64,5.97,11.08,8.83,10.69,21.23,15.21,55.39,24.24,77.28,2.17,5.27.92,5.44,8.16,4.52-1.09-12.57,4.09-27.56,10.78-38.18s22.65-18.89,24.74-26.02c8.11-27.66-11.73-68.97,11.62-91.67-6.04-4.56-74.56,39.78-86.09,46.42-18.74,4.13-13.61-17.29-24.04-17.09-2.61.05-40.73,26.44-41.58,30.98l101.03,278.54c3.13,73.88-50.24,133.48-68.96,201.32l246.52-25.38c-6.77-21.66-10.45-51.64-20.99-71.43-15.32-28.77-54.52-45.27-51.18-82.17,2.28-25.22,12.14-36.18,10.51-69.32-.42-8.57-9.16-50.8-7.2-52.59.4-.36,10.29-.33,10.74.03,4.64,3.71,8.58,74.54,7.39,85.17-3.1,27.81-24.13,41.55-3.63,68.86,27.8,37.01,61.79,58.9,65.36,112.47,2.08,31.23-21.82,11.29-43.65,23.54,7.05,14.16.27,24.56-.14,37.89-2.05,66.46-4.48,133.7-7.83,199.55-.97,19.16-19.53,100.49-13.28,110.1,1.76,2.7,65.25,21.21,39.57,38.74-20.24,13.81-78.07-17.82-98.02-27.37-4.07,8.03-3.63,34.57-8.15,39.01-3.69,3.63-21.6,7.23-24.22-1.5-2.04-6.79,22.73-122.09,26.76-139.17,3.02-12.78,9.57-19.86,11.91-27.97,14.08-48.77-17.35-130.22-17.26-182.18l-27.89,93.42c-20.59,30.6-24.58,81.24-35.46,116.92-9.58,31.42-28.08,65.92-41.8,96.02-2.3,9.14,6.5,3.07,9.97,6.17,1.88,1.69,1.2,8.12,4.68,11.73,13.73,14.25,28.72,20.85,21.78-7.08,12.69-1.39,13.4,10.22,10.66,21.12-.7,2.78-6.39,2.21-7.1,5.01-4.26,16.82,6.49,20.29-25.61,13.97-31.1-6.13-31.04-19.81-74.11-16.44-9.33.73-19.4,6.27-26.22,6.59-16.83.79-2.43-41.98-1.43-52.38,4.48-46.59,18.05-90.81,22.14-133.75,2.48-26.02-1.97-52.13-3.63-77.9l-78.09,199.22-19.75,12.89c28.79,7.96,67.27.22,65.23,41.66-27.44-4.62-216.59,11.98-224.25-.49-4.85-7.9,4.46-30.5,3.46-41.22-.81-8.65-7.44-12.68-7.46-21.14-.03-20.3,5.62-56.46,7.14-80.3,3.43-53.88,14.81-108.12-.08-161.36l-9,50.77c-10.8,15.81-20.64,32.53-31.52,48.25-24.02,34.71-52.23,68.65-76.08,101.58-5.34,7.38-24,37.95-28.44,40.69-4.83,2.99-22-5.3-25.32-1.99-14.88,14.83,43.5,33.23,50.84,41.58,4.56,5.19,10.88,23.51,7.15,27.28-5.42,5.47-129.87-34.44-133.54-40.4-6.85-11.16,5.17-14.15,6.53-16.63,8.92-16.29,14.22-31.38,18.8-49.37l136.43-186.23c2.64-45.16-11.9-88.39-20.96-131.57.43.42,4.42-1.58,7.51,2.28,20.46,25.57,17.57,97.57,27.86,129.63-45.51,65.91-92.53,131.45-142.33,194.39l-1.81,10.85c12.87.26,52.78,14.96,61.68,9.29l134.99-187.84c13.17-57.35-9.7-115.03-2.71-173.08,6.68,7.72,6.99,21.31,8.56,31.32,4.96,31.69,7.05,55.12,14.65,83.86,18.52,70.06,16.03,119.23,11.4,191.32-.66,10.28-10.16,71.41-7.42,74.19,58.63,5.02,42.75-10.63,47.18-52.56,7.14-67.49,12.03-135.22,14.5-203.09l-54-188.22c-2.18-3.24-64.04-4.58-74.35-6.13-24.98-3.76-28.78-22.08-42.72,8.84-12.84,28.49-9.01,46.35-3,74.95ZM1070.19,394.23l-1.74-10.63c-63.94-84.08-114.96-178.43-185.35-257.24-16.45,13.7-136.55,102.45-138.69,111.07-2.28,9.19,43.3,64.99,51.87,77.51,10.79,15.76,43,72.32,52.5,80.78,5.18,4.61,11.91.8,14.4,2.71,2.04,1.56,5.54,34.36,7.77,35.88,1.6,1.1,15.92-7.89,18.07,1.83.56,2.54-19.07,25.22-10.83,38,18.26-7.05,19.83-2.95,25.44,14.51l166.56-94.44ZM841.91,412.51c3.69-3.75-12.27-27.61-15.83-33.09-29.54-45.53-63.73-89.2-95.14-133.52-5.69-1.17-78.29,57.84-88.06,67.45l155.56,231.73c5.44,4.12,41.83-14.88,43.23-16.8,3.7-5.07-5.67-15.47-6.33-20.44-.91-6.76,3.57-13.52,3.11-20.81-.89-13.89-17.91-65.67-6.41-73.79,2.71-1.92,9.22-.05,9.87-.71ZM722.29,597.42l61.65-34.37,2.91-13.65-153.86-227.22-229.24,183.52c-1.89,5.52-.31,10.4,1.12,15.7,5.56,20.55,37.04,84.98,49.74,102.58,2.65,3.67,5.4,8.74,10.19,9.71.74-12.15-10.15-38.63-7.49-48.62.84-3.17,11.35-3.28,16.14-6.17,18.83-11.33,12.21-35.46,13.1-53.98l-14.45,3.61-3.6-21.71-18.21,61.59c-6.97-1.02-13.51-22.26-10.72-25.26.8-.86,8.37,1.76,11.13-2.21,4.16-5.97,14.81-56.85,17.79-59.53,1.16-1.04,30.09,2.12,30.92,3.43,7.96,12.5-13.49,62.09-3.97,80.18,25.08,39.8,33.68,114.32,55.57,151.08,4.22,7.08,18.23,19.06,26.28,13.89,20.91-13.42-9.7-23.91-14.75-32.64-12.14-20.96,4.31-20.13,6.91-24.41,1.99-3.27-2.61-11.34-1.61-17.72,5.02-32.33,43.45-41.75,71.14-34.34,8.82,2.36,26.33,21.32,34.51,9.35,4.74-6.94.47-79.76,1.69-96.19.91-12.26,4.58-34.31,7.41-46.38.92-3.93,10.81.1,3.42-13.48,10.6,3.35,30.88-11.64,29.05,3.58,5.78,1.4,2.64-3.57,3.74-4.45,22.58-17.86,2.34,35.51,3.39,42.53,25.91,4.22,1.87,16-1.7,23.63-6.14,13.13,6.37,41.43,1.79,57.94ZM1041.31,423.42c-2.33-2.62-43.33,21.45-32.62,32.6,1,1.05,27.98,1.03,28.98-.01,1.13-1.19,2.17-27.25,3.64-32.58ZM856.14,438.24c-3.72-2.44-17.7,11.94-18.01,13.15-2.81,10.96,8.07,28.95,7.44,40.9,2.87,2.49,20.41-5.72,21.68-9.95.78-2.59,4.01-29.84,3.48-31.32-1.89-5.28-8.85-4.53-13.06-7.28-1.61-1.05-1.1-5.22-1.53-5.5ZM1041.33,459.66l-43.51,3.63v76.14l43.51-3.63v-76.14ZM707.76,503.13l-7.21-7.21c-1.04,7.57-.36,8.25,7.21,7.21ZM704.14,506.83l-18.14-.05-3.57,174.05c8.9-6.81,30.57-12.97,32.63-23.57l-3.7-143.21-10.83,3.6,3.6-10.83ZM849.12,539.43c-1.98-1.43-30.68,14.09-32.63,16.27-3.76,4.17-6.86,85.82-3.61,88.89,1.26,1.19,26.64-3.15,30.86,10.84.73-15.58,11.95-111.23,5.38-116ZM780.28,702.58c-20.62-13.88-10.23-37.34,7.56-48.64,5.11-3.25,17.82-4.81,17.82-5.74v-83.39c-10.24,5.91-82.4,44.83-83.54,49.55-1.56,6.44-.44,30.81,1.76,37.67,2.21,6.92,10.13,12.18,13.6,19.04,11.38,22.53,19.91,51.18,39.15,67.77,1.05-11.92,1.96-24.45,3.66-36.26,1.96,1.32,9.08-.26,10.41,5.69,1.4,6.24-12.46,43.06-6.78,48.7,1.03,1.02,14.16-.74,18.11.02,3.66,6.43-7.41,11.56-12.39,10.61-5.33-1.02-4.87-9.85-5.72-10.63-.79-.72-5.64-.4-8.76-3.8-19.25-21.01-36.01-56.27-45.67-83.21-4.66-3.31-44.51,20.61-46.66,27.92-4.83,16.47,42.97,64.09,46.46,86.51,6.04,38.74-4.12,90.19.4,130.43l-5.55,27.01c-6.37-4.24-5.24-9.67-5.68-16.09-2.96-43.23,7.4-109-.63-148.02-3.53-17.14-46.31-67.07-46.31-76.96v-52.57c-12.36,2-10.57,9.86-15.58,17.07-1.33,1.91-6.62,2.49-8.15,4.67-3.59,5.13,2.15,9.74,1.97,10.89-.99-.64-5.86,1.18-6.93-.19-2.76-3.55,2.75-28.59-2.14-28.86-4.78,7.04-16.44,23.95-23.61,27.17-9.24,4.15-29.94-2.68-20.83,12.05,1.8,2.91,11.18.26,9.5,12.55-2.15,15.75-28.29,37.83-28.43,44.24-.1,4.6,13.66,30.8,16.24,30.85,6.22-10.32,49.76-60.79,41.7-68.76-1.77-1.75-12.06,3.45-10.85-3.63,17.04-.91,22.84-9.04,25.35-25.43,2.59,1.67,5.58,2.61,7.28,5.53-8.89,11.3-5.96,24.51-10.59,36.48-2.44,6.3-9.51,10.74-10.66,15.02-2.47,9.14,4.46,27.54-1.52,48.93-1.47,5.24-14.48,41.26-24.37,31.8-2.47-2.36,26.02-53.02,18.09-65.22-5.82-6.89-24.48,29.8-27.32,32.47-15.03,14.09-26.5-35.07-32.55-43.29-6.68-9.08-20.58-11.12-26.4-20.73l-47.89-142.5c-3.44-2.95-21.23,7.14-23.55,10.93-5,8.15,15.88,93.89,18.82,111.68,3.52,21.29,18.04,97.54,14.12,113.1-2.83,11.23-12.56,20.34-12.99,32.57,3.33,3.7,90.98,6.17,99.31,3.89,5.25-1.44,3.99-34.89,23.95-25.59,3.32,2.83-21.39,32.35-17.47,40.78,13.8,50.33,34.69,101.51,48.3,151.37,18.52,67.83,3.93,207.51-5.85,280.65-.52,3.89-1.6,10.77-3.27,13.86-3.04,5.62-12.81,4.43-10.8,13.65,13.89-2.98,28.86,5,41.69,4,10.56-.82,9.5-25.55,12.04-35.43,22.85-88.99,48.73-163.92,58.68-256.75,3.1-28.91,6.6-58.04,10.48-86.85l-10.52-5.72c-1-1.33,4.77-7.17,5.44-7.17h58.01c6.85,0,73.79-17.13,84.61-20.53,4.17-1.31,9.61-2.41,11.18-7.18,4.61-14-32.85-89.14-32.33-110.04,9.67-1.85,6.3,2.09,8.85,7.26,12.05,24.45,16.38,54.3,27.25,78.06,1.65,3.6,2.22,8.51,7.35,8.92,10.67-32.87,27.8-63.84,31.8-98.8l-75.31-216.6c-5.29-.66-6.5,9.5-6.87,12.98-2.97,27.69,4.5,56.18-7.64,83.02,14.43-.82,31.11,17.13,7.29,16.4,13.9,14.85,1.01,33.71-.09,52.39-.77,13.07-.06,25.66,3.72,38.19-10.37,1.98-5.83-2.78-8.2-7.92-5.66-12.23-7.95-21.73-6.33-35.55-6.24,1.67-3.65,12.35-7.61,19.53-6.34,11.48-27.97,21.22-32.21,4,25.18-3.27,42.22-24.33,18.11-41.64l14.37-.17c1.41-19.79,13.52-27.81.06-47-2.02-1.4-24.15,19.82-31.63,21.26-15.76,3.05-22.3-20.14-26.31,7.74ZM849.13,735.19c2.61-5.09-2.29-9.67-3.55-7.21-2.61,5.09,2.29,9.67,3.55,7.21ZM873.16,1219.72c5.74-11,12.14-21.7,14.98-34.02l18.62-180.09c-2.8-11.76-34.79,1.69-38.94-15.51-3.22-13.34,21.7-50.67,23.09-66.27-8.8,5.81-45.78,12.31-48.49,20.36-2.38,16.35,1.3,34.34-.36,50.45-2.28,22.16-11.16,50.96-11.27,75.91-.15,32.48,12.33,69.13,11.31,101.66-1.42,45.6-21.96,93.6-21.92,139.47,9.93,1.97,6.2-2.52,8.78-7.34,14.77-27.61,30.2-57.8,44.2-84.62ZM834.65,945.52l-79.77,3.58-7.61,128.35-60.63,222.36c-2.79,13.66,46.12,7.03,48.51,5.09,3.06-2.5,18.51-44.91,22.38-53.92,38.59-89.77,60.21-156.66,73.04-257,2.06-16.12-1.98-32.39,4.08-48.45ZM1084.82,981.77l-79.73,10.88,29.06,186.84-3.67,37.92,36.08-3.78,18.26-231.86ZM997.82,992.67c-28.21.28-54.95,10.54-83.41,7.2l-10.89,157.7c-1.82,23.68-8.7,44.38-14.46,67.09l36.65-2.13,72.1-229.86ZM709.58,1355.2c15.44,4.92,55.72-3.64,74.33,0,2.42-21.15-30.83-16.55-46.49-20.67-15.39-4.05-16.73-13.56-21.05-14.98-5.4-1.77-26.06-1.85-30.42,1.15-15.01,10.32,4.95,13.08,9.24,16.15,5.49,3.93,11.49,17.43,14.39,18.36ZM863.65,1362.43c4.1-3.47-20.34-29.03-25.32-25.35l-7.28,25.35h32.6Z"/>
  <path class="cls-1" d="M928.91,1340.73v3.55c-15.08,1.8-15.08-5.35,0-3.55Z"/>
  <path class="cls-1" d="M452.16,572.05c2.35,1.21,2.35,2.42,0,3.63v-3.63Z"/>
</svg>